<?xml version="1.0" standalone="no"?>
<!DOCTYPE svg PUBLIC "-//W3C//DTD SVG 20010904//EN"
 "http://www.w3.org/TR/2001/REC-SVG-20010904/DTD/svg10.dtd">
<svg version="1.0" xmlns="http://www.w3.org/2000/svg"
 width="300.000000pt" height="236.000000pt" viewBox="0 0 300.000000 236.000000"
 preserveAspectRatio="xMidYMid meet">
<metadata>
Created by potrace 1.10, written by Peter Selinger 2001-2011
</metadata>
<g transform="translate(0.000000,236.000000) scale(0.100000,-0.100000)"
fill="#F2ECDC" stroke="none" >
<path d="M1404 1768 c-181 -195 -245 -386 -199 -594 26 -119 75 -204 180 -312
l90 -93 82 76 c151 140 204 251 205 430 1 153 -37 261 -144 402 -51 68 -134
163 -142 163 -2 0 -34 -33 -72 -72z m163 -73 c73 -91 132 -195 152 -272 6 -23
12 -86 13 -140 1 -111 -14 -174 -62 -257 -31 -55 -173 -206 -193 -206 -6 0
-43 33 -82 73 -94 95 -150 204 -170 332 -16 95 -11 145 21 245 37 111 194 325
233 318 9 -2 48 -44 88 -93z"/>
<path d="M652 1025 c-86 -16 -173 -45 -179 -61 -7 -18 100 -246 140 -301 82
-112 201 -197 322 -229 104 -28 309 -13 448 32 57 19 57 17 -2 154 -82 190
-160 285 -292 355 -120 63 -270 80 -437 50z m322 -35 c176 -55 295 -172 379
-375 40 -97 40 -100 12 -119 -60 -39 -348 -66 -402 -38 -11 6 -23 9 -26 6 -3
-3 -40 11 -82 31 -57 27 -97 56 -150 109 -73 72 -102 118 -162 256 l-32 75 27
22 c15 13 34 23 42 24 8 0 47 7 85 14 110 21 232 18 309 -5z"/>
<path d="M1980 1019 c-201 -52 -333 -195 -434 -472 l-25 -68 27 -10 c110 -42
307 -65 420 -49 147 20 292 113 382 245 19 28 58 104 88 170 61 136 62 129
-33 164 -115 43 -304 52 -425 20z m337 -30 c45 -10 93 -24 107 -31 l25 -13
-18 -50 c-26 -72 -88 -189 -132 -247 -55 -74 -151 -148 -209 -162 -3 -1 -14
-7 -25 -13 -11 -6 -58 -17 -103 -24 -79 -12 -208 -4 -302 18 -14 3 -32 7 -40
9 -8 2 -24 8 -36 15 -22 11 -22 11 -4 63 86 249 216 384 420 440 73 20 213 18
317 -5z"/>
</g>
</svg>
