<?xml version="1.0" standalone="no"?>
<!DOCTYPE svg PUBLIC "-//W3C//DTD SVG 20010904//EN"
 "http://www.w3.org/TR/2001/REC-SVG-20010904/DTD/svg10.dtd">
<svg version="1.0" xmlns="http://www.w3.org/2000/svg"
 width="300.000000pt" height="236.000000pt" viewBox="0 0 300.000000 236.000000"
 preserveAspectRatio="xMidYMid meet">
<metadata>
Created by potrace 1.10, written by Peter Selinger 2001-2011
</metadata>
<g transform="translate(0.000000,236.000000) scale(0.100000,-0.100000)"
fill="#F2ECDC" stroke="none">
<path d="M1417 1780 c-149 -161 -213 -288 -223 -445 -12 -162 45 -318 162
-444 36 -39 79 -80 95 -92 l30 -21 66 59 c95 83 157 171 189 270 24 75 26 92
22 200 -4 90 -10 132 -28 176 -28 75 -121 213 -197 296 l-58 64 -58 -63z"/>
<path d="M661 1025 c-66 -12 -191 -52 -191 -61 0 -17 100 -230 131 -279 77
-122 203 -215 339 -250 91 -24 272 -16 393 18 48 13 90 27 93 30 17 17 -103
270 -168 355 -51 66 -168 145 -256 173 -86 27 -240 34 -341 14z"/>
<path d="M2038 1030 c-109 -20 -225 -76 -297 -143 -55 -52 -127 -171 -170
-282 -23 -57 -41 -108 -41 -114 0 -32 187 -71 344 -72 85 0 127 5 177 20 117
37 230 125 306 241 36 52 122 242 123 267 0 18 -69 51 -142 68 -80 18 -239 27
-300 15z"/>
</g>
</svg>
